<svg width="143" height="143" viewBox="0 0 143 143" fill="none" xmlns="http://www.w3.org/2000/svg">
<path d="M28.8884 79.9991H19.9996C18.8208 79.9991 17.6904 80.4673 16.8569 81.3008C16.0234 82.1343 15.5552 83.2648 15.5552 84.4435V115.554C15.5552 116.733 16.0234 117.863 16.8569 118.697C17.6904 119.53 18.8208 119.999 19.9996 119.999H28.8884C34.1926 119.999 39.2797 117.892 43.0303 114.141C46.781 110.39 48.8882 105.303 48.8882 99.9989C48.8882 94.6946 46.781 89.6076 43.0303 85.8569C39.2797 82.1062 34.1926 79.9991 28.8884 79.9991ZM28.8884 111.11H24.444V88.8879H28.8884C31.8352 88.8879 34.6613 90.0585 36.745 92.1422C38.8287 94.2259 39.9994 97.0521 39.9994 99.9989C39.9994 102.946 38.8287 105.772 36.745 107.856C34.6613 109.939 31.8352 111.11 28.8884 111.11ZM123.071 108.382C123.922 109.197 124.415 110.317 124.441 111.495C124.467 112.673 124.024 113.814 123.21 114.665C121.662 116.331 119.791 117.664 117.71 118.581C115.629 119.498 113.383 119.98 111.11 119.999C101.304 119.999 93.3321 111.027 93.3321 99.9989C93.3321 88.9712 101.304 79.9991 111.11 79.9991C113.383 80.0175 115.629 80.5 117.71 81.4171C119.791 82.3342 121.662 83.6665 123.21 85.3324C124.007 86.1872 124.435 87.3217 124.401 88.49C124.368 89.6583 123.876 90.7664 123.031 91.5744C122.187 92.3824 121.058 92.8251 119.889 92.8069C118.721 92.7886 117.606 92.3107 116.787 91.4767C116.066 90.6828 115.191 90.0439 114.215 89.5989C113.239 89.1538 112.182 88.9119 111.11 88.8879C106.21 88.8879 102.221 93.8878 102.221 99.9989C102.221 106.11 106.21 111.11 111.11 111.11C112.182 111.086 113.239 110.844 114.215 110.399C115.191 109.954 116.066 109.315 116.787 108.521C117.602 107.669 118.722 107.176 119.9 107.15C121.079 107.124 122.219 107.567 123.071 108.382ZM71.1101 79.9991C61.3047 79.9991 53.3326 88.9712 53.3326 99.9989C53.3326 111.027 61.3047 119.999 71.1101 119.999C80.9156 119.999 88.8877 111.027 88.8877 99.9989C88.8877 88.9712 80.9156 79.9991 71.1101 79.9991ZM71.1101 111.11C66.2102 111.11 62.2213 106.11 62.2213 99.9989C62.2213 93.8878 66.2102 88.8879 71.1101 88.8879C76.0101 88.8879 79.9989 93.8878 79.9989 99.9989C79.9989 106.11 76.0101 111.11 71.1101 111.11ZM26.6662 66.6659C27.8449 66.6659 28.9753 66.1976 29.8088 65.3642C30.6423 64.5307 31.1106 63.4002 31.1106 62.2215V22.2219H79.9989V48.8883C79.9989 50.067 80.4672 51.1975 81.3007 52.031C82.1341 52.8645 83.2646 53.3327 84.4433 53.3327H111.11V62.2215C111.11 63.4002 111.578 64.5307 112.411 65.3642C113.245 66.1976 114.375 66.6659 115.554 66.6659C116.733 66.6659 117.863 66.1976 118.697 65.3642C119.53 64.5307 119.999 63.4002 119.999 62.2215V48.8883C119.999 48.3045 119.884 47.7263 119.661 47.1868C119.438 46.6472 119.111 46.1569 118.699 45.7439L87.5877 14.6331C87.1747 14.2205 86.6844 13.8934 86.1449 13.6703C85.6053 13.4472 85.0271 13.3327 84.4433 13.3331H31.1106C28.7531 13.3331 26.4922 14.2696 24.8252 15.9366C23.1583 17.6036 22.2218 19.8645 22.2218 22.2219V62.2215C22.2218 63.4002 22.69 64.5307 23.5235 65.3642C24.357 66.1976 25.4874 66.6659 26.6662 66.6659ZM88.8877 28.5052L104.826 44.4439H88.8877V28.5052Z" fill="#1E2733"/>
</svg>
